inDegrees=no
num_controls=7
num_derivatives=13
num_iterations=138
num_multipliers=7
num_parameters=0
num_slacks=7
num_states=26
objective=5.803188
objective_accelerations=0.666878
objective_balance=0.087765
objective_effort=0.499782
objective_height=4.528204
objective_ligament=0.020560
solver_duration=1535.502084
status=Solve_Succeeded
success=true
DataType=double
version=3
OpenSimVersion=4.4-2022-07-23-0e9fedc
endheader
time	/jointset/ground_pelvis/pelvis_tilt/value	/jointset/ground_pelvis/pelvis_tx/value	/jointset/ground_pelvis/pelvis_ty/value	/jointset/hip_l/hip_flexion_l/value	/jointset/hip_l/hip_adduction_l/value	/jointset/hip_l/hip_rotation_l/value	/jointset/back/lumbar_extension/value	/jointset/patellofemoral_l/patellar_flexion_l/value	/jointset/knee_l/knee_flexion_l/value	/jointset/knee_l/knee_adduction_l/value	/jointset/knee_l/knee_rotation_l/value	/jointset/ankle_l/ankle_angle_l/value	/jointset/subtalar_l/subtalar_angle_l/value	/jointset/ground_pelvis/pelvis_tilt/speed	/jointset/ground_pelvis/pelvis_tx/speed	/jointset/ground_pelvis/pelvis_ty/speed	/jointset/hip_l/hip_flexion_l/speed	/jointset/hip_l/hip_adduction_l/speed	/jointset/hip_l/hip_rotation_l/speed	/jointset/back/lumbar_extension/speed	/jointset/patellofemoral_l/patellar_flexion_l/speed	/jointset/knee_l/knee_flexion_l/speed	/jointset/knee_l/knee_adduction_l/speed	/jointset/knee_l/knee_rotation_l/speed	/jointset/ankle_l/ankle_angle_l/speed	/jointset/subtalar_l/subtalar_angle_l/speed	/forceset/tau_hip_flexion_l	/forceset/tau_hip_adduction_l	/forceset/tau_hip_rotation_l	/forceset/tau_knee_flexion_l	/forceset/tau_ankle_angle_l	/forceset/tau_subtalar_angle_l	/forceset/tau_lumbar_extension	lambda_cid13_p0	lambda_cid13_p1	lambda_cid13_p2	lambda_cid13_p3	lambda_cid13_p4	lambda_cid13_p5	lambda_cid14_p0	/jointset/ground_pelvis/pelvis_tilt/accel	/jointset/ground_pelvis/pelvis_tx/accel	/jointset/ground_pelvis/pelvis_ty/accel	/jointset/hip_l/hip_flexion_l/accel	/jointset/hip_l/hip_adduction_l/accel	/jointset/hip_l/hip_rotation_l/accel	/jointset/back/lumbar_extension/accel	/jointset/patellofemoral_l/patellar_flexion_l/accel	/jointset/knee_l/knee_flexion_l/accel	/jointset/knee_l/knee_adduction_l/accel	/jointset/knee_l/knee_rotation_l/accel	/jointset/ankle_l/ankle_angle_l/accel	/jointset/subtalar_l/subtalar_angle_l/accel	gamma_cid13_p0	gamma_cid13_p1	gamma_cid13_p2	gamma_cid13_p3	gamma_cid13_p4	gamma_cid13_p5	gamma_cid14_p0
0.5	-0.5028214363086074	-0.1027461552735866	0.7509230147988151	1.345896210396831	-0.3112967504382424	-0.05852298338177944	-0.3409844002357416	0.6592865784880217	0.6592865784879124	-0.1744688525938899	0.172618697429261	-0.02309704467718035	-0.06221353104992297	-0.8958612440890357	-0.324800004058297	-0.5321591727403504	2.5720658959997	-0.04894000872335465	0.5668419216816449	-0.6104942063334903	1.695238602237767	1.695238602237643	-0.0005984206529854309	0.01455387806803773	0.09628531315891015	-0.04786816774054894	-0.2765526866195233	0.0100427340314847	-0.01900156580866969	-0.1873496576732707	0.1744431110787667	0.04710133130535521	0.2402743276289919	16.9489454426615	-25.61056311751963	6.178476695554375	-8.778761811580837	-609.9572146634862	-62.27730178416643	-29.94172888317776	0.7440489438634958	0.8477119390375112	-0.2651475357539636	-1.79565824778424	0.5496785245753982	-0.1977110755493693	1.996100227230696	-1.077872580765699	-1.077872580765696	0.03494517700111718	-0.0842713893531454	0.0676621727956303	0.5503786498257357	-2.707087754110851e-08	-9.763523622379098e-07	2.907026724704824e-07	-1.482371183012287e-07	-2.232465439957504e-07	1.516021205812676e-07	-1.770779893552729e-07
0.51	-0.5117409216091332	-0.105951407228141	0.7455893054747489	1.371522690719058	-0.3117597607733306	-0.05286624622775075	-0.3469897926715082	0.676182816257819	0.6761828162576811	-0.1744744738068809	0.1727616902697079	-0.02213135777611017	-0.06266582245796587	-0.8879207391230728	-0.3162236130276658	-0.5344720351912351	2.552897077882341	-0.04366856373537729	0.5644142713549849	-0.5905288128804543	1.683783796014525	1.683783796014403	-0.0005106564278641394	0.01405836344627602	0.09682309009016017	-0.04259722213078106	-0.2856779395725655	0.01056950244509634	-0.01914989859685404	-0.1884443476285944	0.1757942980064037	0.04770778794065907	0.24716281573679	17.0951755571165	-25.78757023050318	6.078787451693404	-8.982699870246767	-615.0607146912258	-61.88619079882923	-28.99447665330979	0.836297130634817	0.8665902327749554	-0.1978003670411064	-2.027476523170629	0.5149993124907559	-0.2791615414860451	2.005079094747204	-1.213022902851234	-1.21302290285128	-0.002198300121866609	-0.03026321176922826	0.04248460900387877	0.5144986654955708	-8.600744531926528e-08	-8.32375622899157e-07	5.61823969492176e-07	-8.253429159552351e-08	-2.45638349344759e-07	2.048139583876515e-07	-2.016253120785328e-07
0.52	-0.520577552688448	-0.1090700977628499	0.7402357785727161	1.396947486274204	-0.3121702322932224	-0.04723655948306897	-0.3527938671346653	0.6929577583134281	0.692957758313294	-0.1744787954466553	0.172900113621322	-0.02116116327458469	-0.06306559518012243	-0.8792903998502496	-0.3074877200892007	-0.5361226883336188	2.531728942586596	-0.03843224568410709	0.5614318398178587	-0.5702306118111415	1.670979459401378	1.670979459401257	-0.00033850601833077	0.01363998029724349	0.09718683324998739	-0.03736443056328437	-0.2948031925257992	0.01109627085862566	-0.01929823138467048	-0.1895390375839641	0.1771454849340406	0.04831424457588167	0.2540513038444086	17.23330539496668	-25.96538625369161	5.981771120173013	-9.169239638557958	-620.2908609648038	-61.54743712593606	-28.03341910926727	0.8820158052352202	0.8796123206044459	-0.1327056740537119	-2.195521683461799	0.5426531372340081	-0.308667317642728	2.06266175048586	-1.347778658746754	-1.347778658746756	0.05182241388353346	-0.06884509480711834	0.03285541851130645	0.5427478413715067	-1.968370021526118e-07	-6.145823918282619e-07	1.089188888753678e-06	3.888890077687483e-08	-3.045131165437082e-07	2.961702705558378e-07	-2.544467039804186e-07
0.53	-0.5293245531905536	-0.1121007994559104	0.7348690488648414	1.422150782617189	-0.3125288765892519	-0.04163765373729734	-0.3583934405466593	0.7095975805185585	0.7095975805186018	-0.1744825098614535	0.1730333935360165	-0.02018849823747574	-0.06341364604941087	-0.8699972843536997	-0.2986413653003274	-0.5371139049649285	2.508619385265916	-0.03330576114075901	0.5582594925999403	-0.5496481725865042	1.656770825330302	1.656770825330109	-0.0003873981875945342	0.01303010264058179	0.09730870688963279	-0.03225715040258578	-0.3038929772839871	0.01151729984608866	-0.01939518384771245	-0.1902185717955782	0.1776971509793856	0.04891279051983458	0.2607870682936034	17.12285216215652	-26.09521226104371	5.875927866417237	-9.051518656258681	-625.3058662916822	-61.13239474106312	-27.06457036303877	0.9697873250569744	0.8888555751211751	-0.06599450357842467	-2.415356076365595	0.4961741505060314	-0.335248832244615	2.061419708126699	-1.489472787192291	-1.489472787203282	-0.03072577828311487	-0.05524704670704773	-0.003757318210893321	0.4929267142716061	-2.488307906645303e-07	-4.690553057851736e-07	1.345315630119906e-06	1.009569472407267e-07	-3.210431032976694e-07	3.472014805595783e-07	-2.751410798444249e-07
0.54	-0.5379752569570335	-0.1150426958976645	0.7294956740214715	1.447113646722961	-0.312836550432322	-0.03607321754540147	-0.3637861126264715	0.7260889029817992	0.7260889029820309	-0.1744862093471186	0.1731609370850237	-0.0192157365949496	-0.06371098239492175	-0.8600310527294999	-0.2897266698279246	-0.5374517154326222	2.483642495145425	-0.02823815509256809	0.554537929046903	-0.5288503453749135	1.641279511023068	1.641279511022804	-0.0003355201949346912	0.01249270715945869	0.09720615433320706	-0.02722152580778471	-0.3129827620423061	0.01193832883349694	-0.01949213631057858	-0.1908981060071976	0.1782488170247406	0.04951133646373503	0.2675228327426705	17.00848142738371	-26.22790098808977	5.774595042160978	-8.952735636107359	-630.4022949659818	-60.79029448236295	-26.09694720153873	1.016639030764825	0.8932804573104792	-0.002024441330479924	-2.568988243423956	0.5308774382025923	-0.4185105846666319	2.10573934787638	-1.604314705978235	-1.604314705978235	0.07197644626825087	-0.05434865969922193	-0.01202982070274786	0.5284167281919913	-2.357296865655064e-07	-4.034822525388086e-07	1.301349068282847e-06	9.735547057171791e-08	-2.907235457295158e-07	3.536176839132931e-07	-2.602906720069471e-07
